<svg width="41" height="41" viewBox="0 0 41 41" fill="none" xmlns="http://www.w3.org/2000/svg">
<circle cx="20.5" cy="20.5" r="20.5" fill="#ACCACF"/>
<path d="M22.5384 21.4384L15.894 28.0812L15.894 28.0812C15.6418 28.3334 15.5001 28.6755 15.5001 29.0321C15.5001 29.3888 15.6418 29.7309 15.894 29.9831C16.1462 30.2353 16.4883 30.377 16.8449 30.377C17.2016 30.377 17.5437 30.2353 17.7959 29.9831L25.3892 22.3898C25.3892 22.3897 25.3893 22.3896 25.3894 22.3895L25.3896 22.3893L25.0361 22.0358L22.5384 21.4384ZM22.5384 21.4384L15.894 14.7956L15.894 14.7956C15.6418 14.5434 15.5001 14.2013 15.5001 13.8446C15.5001 13.488 15.6418 13.1459 15.894 12.8937C16.1462 12.6415 16.4883 12.4998 16.8449 12.4998C17.2016 12.4998 17.5437 12.6415 17.7959 12.8937L25.3892 20.487M22.5384 21.4384L25.3892 20.487M25.3892 20.487C25.3892 20.4871 25.3893 20.4872 25.3894 20.4873L25.3892 20.487Z" fill="#0C6574" stroke="#0C6574"/>
</svg>
