<svg width="41" height="41" viewBox="0 0 41 41" fill="none" xmlns="http://www.w3.org/2000/svg">
<circle cx="20.5" cy="20.5" r="20.5" fill="#ACCACF"/>
<path d="M16.7455 21.4386L23.3899 14.7958L23.3899 14.7957C23.6421 14.5435 23.7838 14.2015 23.7838 13.8448C23.7838 13.4882 23.6421 13.1461 23.3899 12.8939C23.1377 12.6417 22.7957 12.5 22.439 12.5C22.0823 12.5 21.7403 12.6417 21.4881 12.8939L13.8948 20.4872C13.8947 20.4873 13.8946 20.4874 13.8945 20.4875L13.8943 20.4876L14.2479 20.8412L16.7455 21.4386ZM16.7455 21.4386L23.3899 28.0813L23.3899 28.0814C23.6421 28.3336 23.7838 28.6757 23.7838 29.0323C23.7838 29.389 23.6421 29.731 23.3899 29.9832C23.1377 30.2354 22.7957 30.3771 22.439 30.3771C22.0823 30.3771 21.7403 30.2354 21.4881 29.9832L13.8948 22.3899M16.7455 21.4386L13.8948 22.3899M13.8948 22.3899C13.8947 22.3899 13.8946 22.3898 13.8945 22.3897L13.8948 22.3899Z" fill="#0C6574" stroke="#0C6574"/>
</svg>
