<svg width="34" height="28" viewBox="0 0 34 28" fill="none" xmlns="http://www.w3.org/2000/svg">
<path d="M3.66671 27.3332C2.75004 27.3332 1.9656 27.0071 1.31337 26.3548C0.661152 25.7026 0.334485 24.9176 0.333374 23.9998V3.99984C0.333374 3.08317 0.660041 2.29873 1.31337 1.6465C1.96671 0.994281 2.75115 0.667615 3.66671 0.666504H30.3334C31.25 0.666504 32.035 0.99317 32.6884 1.6465C33.3417 2.29984 33.6678 3.08428 33.6667 3.99984V23.9998C33.6667 24.9165 33.3406 25.7015 32.6884 26.3548C32.0362 27.0082 31.2512 27.3343 30.3334 27.3332H3.66671ZM17 15.6665L30.3334 7.33317V3.99984L17 12.3332L3.66671 3.99984V7.33317L17 15.6665Z" fill="#0C6574"/>
</svg>
