<svg width="61" height="61" viewBox="0 0 61 61" fill="none" xmlns="http://www.w3.org/2000/svg">
<path d="M33.5411 0.916504C36.8692 0.925379 38.5585 0.943129 40.0169 0.984546L40.5908 1.00525C41.2535 1.02892 41.9073 1.0585 42.6972 1.094C45.8448 1.24192 47.9926 1.73892 49.877 2.46963C51.8295 3.22105 53.4744 4.23871 55.1192 5.88059C56.6235 7.35945 57.7875 9.14833 58.5302 11.1228C59.2609 13.0072 59.7579 15.155 59.9058 18.3056C59.9413 19.0925 59.9709 19.7463 59.9945 20.4119L60.0123 20.9858C60.0567 22.4413 60.0744 24.1305 60.0803 27.4587L60.0833 29.6656V33.541C60.0906 35.6988 60.0679 37.8566 60.0152 40.0138L59.9975 40.5878C59.9738 41.2534 59.9442 41.9072 59.9087 42.6941C59.7608 45.8447 59.2579 47.9895 58.5302 49.8769C57.7896 51.8524 56.6254 53.6418 55.1192 55.1191C53.6399 56.6229 51.8512 57.7868 49.877 58.53C47.9926 59.2608 45.8448 59.7578 42.6972 59.9057C41.9952 59.9387 41.2931 59.9683 40.5908 59.9944L40.0169 60.0122C38.5585 60.0536 36.8692 60.0743 33.5411 60.0802L31.3342 60.0832H27.4617C25.3029 60.0906 23.1441 60.0679 20.986 60.0151L20.412 59.9974C19.7098 59.9708 19.0076 59.9402 18.3057 59.9057C15.158 59.7578 13.0103 59.2608 11.1229 58.53C9.14869 57.7886 7.36052 56.6244 5.88367 55.1191C4.37801 53.6408 3.21295 51.8518 2.46975 49.8769C1.73904 47.9925 1.24204 45.8447 1.09412 42.6941C1.06116 41.9921 1.03158 41.29 1.00537 40.5878L0.990583 40.0138C0.936067 37.8567 0.911411 35.6989 0.916624 33.541V27.4587C0.908367 25.3009 0.930064 23.143 0.981708 20.9858L1.00242 20.4119C1.02608 19.7463 1.05567 19.0925 1.09117 18.3056C1.23908 15.155 1.73608 13.0102 2.46679 11.1228C3.20967 9.1463 4.37705 7.35687 5.88662 5.88059C7.3631 4.3762 9.15009 3.21213 11.1229 2.46963C13.0103 1.73892 15.1551 1.24192 18.3057 1.094C19.0926 1.0585 19.7494 1.02892 20.412 1.00525L20.986 0.987504C23.1432 0.934942 25.301 0.91226 27.4588 0.919462L33.5411 0.916504ZM30.5 15.7082C26.577 15.7082 22.8146 17.2666 20.0407 20.0406C17.2667 22.8145 15.7083 26.5768 15.7083 30.4998C15.7083 34.4228 17.2667 38.1852 20.0407 40.9591C22.8146 43.7331 26.577 45.2915 30.5 45.2915C34.423 45.2915 38.1853 43.7331 40.9592 40.9591C43.7332 38.1852 45.2916 34.4228 45.2916 30.4998C45.2916 26.5768 43.7332 22.8145 40.9592 20.0406C38.1853 17.2666 34.423 15.7082 30.5 15.7082ZM30.5 21.6248C31.6654 21.6246 32.8195 21.854 33.8964 22.2998C34.9732 22.7457 35.9517 23.3992 36.776 24.2232C37.6002 25.0472 38.2541 26.0255 38.7003 27.1022C39.1465 28.1788 39.3762 29.3329 39.3764 30.4984C39.3766 31.6638 39.1473 32.8179 38.7014 33.8948C38.2556 34.9716 37.602 35.9501 36.7781 36.7744C35.9541 37.5986 34.9758 38.2525 33.8991 38.6987C32.8224 39.1449 31.6684 39.3746 30.5029 39.3748C28.1491 39.3748 25.8917 38.4398 24.2273 36.7754C22.563 35.111 21.6279 32.8536 21.6279 30.4998C21.6279 28.146 22.563 25.8887 24.2273 24.2243C25.8917 22.5599 28.1491 21.6248 30.5029 21.6248M46.0342 11.2707C45.0534 11.2707 44.1128 11.6603 43.4193 12.3538C42.7258 13.0473 42.3362 13.9878 42.3362 14.9686C42.3362 15.9493 42.7258 16.8899 43.4193 17.5834C44.1128 18.2769 45.0534 18.6665 46.0342 18.6665C47.0149 18.6665 47.9555 18.2769 48.649 17.5834C49.3425 16.8899 49.7321 15.9493 49.7321 14.9686C49.7321 13.9878 49.3425 13.0473 48.649 12.3538C47.9555 11.6603 47.0149 11.2707 46.0342 11.2707Z" fill="#ACCACF"/>
</svg>
