<svg width="61" height="43" viewBox="0 0 61 43" fill="none" xmlns="http://www.w3.org/2000/svg">
<path d="M24.5833 30.3748L39.937 21.4998L24.5833 12.6248V30.3748ZM58.7816 7.21109C59.1662 8.6015 59.4325 10.4653 59.61 12.8319C59.817 15.1986 59.9058 17.2398 59.9058 19.0148L60.0833 21.4998C60.0833 27.9786 59.61 32.7415 58.7816 35.7886C58.042 38.4511 56.3262 40.1669 53.6637 40.9065C52.2733 41.2911 49.7291 41.5573 45.8241 41.7348C41.9783 41.9419 38.4579 42.0307 35.2037 42.0307L30.5 42.2082C18.1045 42.2082 10.3833 41.7348 7.33621 40.9065C4.67371 40.1669 2.95788 38.4511 2.21829 35.7886C1.83371 34.3982 1.56746 32.5344 1.38996 30.1678C1.18288 27.8011 1.09413 25.7598 1.09413 23.9848L0.916626 21.4998C0.916626 15.0211 1.38996 10.2582 2.21829 7.21109C2.95788 4.54859 4.67371 2.83275 7.33621 2.09317C8.72663 1.70859 11.2708 1.44234 15.1758 1.26484C19.0216 1.05775 22.542 0.969004 25.7962 0.969004L30.5 0.791504C42.8954 0.791504 50.6166 1.26484 53.6637 2.09317C56.3262 2.83275 58.042 4.54859 58.7816 7.21109Z" fill="#ACCACF"/>
</svg>
