<svg width="24" height="24" viewBox="0 0 24 24" fill="none" xmlns="http://www.w3.org/2000/svg">
<path d="M19.9999 17C20.5732 17 21.0566 17.2 21.4499 17.6C21.8432 18 22.0366 18.4667 22.0299 19L13.9999 22L6.99989 20V11H8.94989L16.2199 13.69C16.7399 13.8967 16.9999 14.27 16.9999 14.81C16.9999 15.1233 16.8866 15.3967 16.6599 15.63C16.4332 15.8633 16.1466 15.9867 15.7999 16H12.9999L11.2499 15.33L10.9199 16.27L12.9999 17H19.9999ZM15.9999 3.23C16.7066 2.41 17.6066 2 18.6999 2C19.6066 2 20.3732 2.33333 20.9999 3C21.6266 3.66667 21.9599 4.43333 21.9999 5.3C21.9999 5.98667 21.6666 6.80667 20.9999 7.76C20.3332 8.71333 19.6766 9.51 19.0299 10.15C18.3832 10.79 17.3732 11.74 15.9999 13C14.6132 11.74 13.5932 10.79 12.9399 10.15C12.2866 9.51 11.6299 8.71333 10.9699 7.76C10.3099 6.80667 9.98655 5.98667 9.99989 5.3C9.99989 4.39333 10.3232 3.62667 10.9699 3C11.6166 2.37333 12.3966 2.04 13.3099 2C14.3766 2 15.2732 2.41 15.9999 3.23ZM0.983887 11H4.99989V22H0.983887V11Z" fill="#0C6574"/>
</svg>
