<svg width="70" height="70" viewBox="0 0 70 70" fill="none" xmlns="http://www.w3.org/2000/svg">
<circle cx="35" cy="35" r="35" transform="rotate(90 35 35)" fill="#ACCACF"/>
<path d="M47.0032 27.0542L47.0031 27.0543L35.4073 38.37L23.8115 27.0543L23.8114 27.0542C23.4463 26.698 22.9536 26.5 22.4424 26.5C21.9312 26.5 21.4385 26.698 21.0733 27.0542C20.7077 27.4109 20.5 27.8973 20.5 28.4071C20.5 28.917 20.7077 29.4034 21.0733 29.7601L34.0378 42.4084C34.0378 42.4085 34.0379 42.4085 34.038 42.4086C34.2187 42.5854 34.4328 42.725 34.6676 42.82C34.9024 42.9151 35.1537 42.9639 35.4073 42.9639C35.6609 42.9639 35.9122 42.9151 36.147 42.82C36.3817 42.725 36.5957 42.5855 36.7764 42.4089C36.7765 42.4087 36.7767 42.4086 36.7768 42.4084L49.7413 29.7601C50.1069 29.4034 50.3146 28.917 50.3146 28.4071C50.3146 27.8973 50.1069 27.4109 49.7413 27.0542C49.3762 26.698 48.8835 26.5 48.3722 26.5C47.861 26.5 47.3683 26.698 47.0032 27.0542Z" fill="#0C6574" stroke="#0C6574"/>
</svg>
