<svg width="96" height="22" viewBox="0 0 96 22" fill="none" xmlns="http://www.w3.org/2000/svg">
<path d="M21.3333 10.9999C21.3333 13.8289 20.2095 16.542 18.2091 18.5424C16.2088 20.5428 13.4956 21.6666 10.6667 21.6666C7.83769 21.6666 5.12458 20.5428 3.12419 18.5424C1.12381 16.542 0 13.8289 0 10.9999C0 8.17094 1.12381 5.45784 3.12419 3.45745C5.12458 1.45706 7.83769 0.333252 10.6667 0.333252C13.4956 0.333252 16.2088 1.45706 18.2091 3.45745C20.2095 5.45784 21.3333 8.17094 21.3333 10.9999ZM96 10.9999C96 13.8289 94.8762 16.542 92.8758 18.5424C90.8754 20.5428 88.1623 21.6666 85.3333 21.6666C82.5044 21.6666 79.7913 20.5428 77.7909 18.5424C75.7905 16.542 74.6667 13.8289 74.6667 10.9999C74.6667 8.17094 75.7905 5.45784 77.7909 3.45745C79.7913 1.45706 82.5044 0.333252 85.3333 0.333252C88.1623 0.333252 90.8754 1.45706 92.8758 3.45745C94.8762 5.45784 96 8.17094 96 10.9999Z" fill="#0C6574"/>
<path opacity="0.5" d="M58.6666 10.9999C58.6666 13.8289 57.5428 16.542 55.5424 18.5424C53.542 20.5428 50.8289 21.6666 47.9999 21.6666C45.1709 21.6666 42.4578 20.5428 40.4574 18.5424C38.4571 16.542 37.3333 13.8289 37.3333 10.9999C37.3333 8.17094 38.4571 5.45784 40.4574 3.45745C42.4578 1.45706 45.1709 0.333252 47.9999 0.333252C50.8289 0.333252 53.542 1.45706 55.5424 3.45745C57.5428 5.45784 58.6666 8.17094 58.6666 10.9999Z" fill="#5D98A2"/>
</svg>
