<svg width="67" height="63" viewBox="0 0 67 63" fill="none" xmlns="http://www.w3.org/2000/svg">
<path d="M52.75 61.7167L65.0187 47.2942C65.3798 46.8703 65.5829 46.2951 65.5833 45.6951V25.8868C65.5833 24.3864 65.0763 22.9474 64.1738 21.8865C63.2713 20.8255 62.0472 20.2295 60.7708 20.2295C59.4945 20.2295 58.2704 20.8255 57.3679 21.8865C56.4654 22.9474 55.9583 24.3864 55.9583 25.8868V42.8589" stroke="#0C6574" stroke-width="1.5" stroke-linecap="round" stroke-linejoin="round"/>
<path d="M52.7501 46.6304L55.5028 43.3944C55.648 43.2252 55.7631 43.0236 55.8413 42.8015C55.9195 42.5794 55.9593 42.3412 55.9584 42.1008C55.9562 41.7621 55.8748 41.4306 55.7231 41.1426C55.5715 40.8546 55.3554 40.6212 55.0986 40.4677L53.6773 39.6342C52.4732 38.9264 51.1102 38.6818 49.7813 38.935C48.4524 39.1881 47.2248 39.9262 46.2725 41.0448L43.401 44.4203C42.1976 45.8346 41.5213 47.7529 41.5209 49.7533V61.7167M14.2501 61.7167L1.98142 47.2942C1.6203 46.8703 1.4172 46.2951 1.41675 45.6951V25.8868C1.41675 24.3864 1.92378 22.9474 2.8263 21.8865C3.72882 20.8255 4.95289 20.2295 6.22925 20.2295C7.5056 20.2295 8.72968 20.8255 9.6322 21.8865C10.5347 22.9474 11.0417 24.3864 11.0417 25.8868V42.8589" stroke="#0C6574" stroke-width="1.5" stroke-linecap="round" stroke-linejoin="round"/>
<path d="M14.2501 46.6304L11.4973 43.3943C11.2099 43.0478 11.0468 42.5847 11.0417 42.1007C11.0417 41.4105 11.3754 40.7807 11.9016 40.4676L13.3229 39.6341C14.527 38.9263 15.89 38.6817 17.2189 38.9349C18.5478 39.188 19.7753 39.9261 20.7277 41.0447L23.5992 44.4202C24.8026 45.8345 25.4789 47.7528 25.4792 49.7532V61.7166M38.8484 31.5441H28.1518V22.745H20.6667V10.1706H28.1518V1.37158H38.8484V10.1706H46.3334V22.745H38.8484V31.5441Z" stroke="#0C6574" stroke-width="1.5" stroke-linecap="round" stroke-linejoin="round"/>
</svg>
